<svg width="361" height="258" viewBox="0 0 361 258" fill="none" xmlns="http://www.w3.org/2000/svg">
<path d="M205.448 106.397L219.788 135.882L211.736 139.798L194.887 105.156C195.133 104.673 195.503 104.266 195.961 103.977C195.609 103.624 195.355 103.005 194.849 103.118C194.733 103.488 194.459 103.765 195.031 103.982C194.875 104.138 194.703 104.276 194.517 104.393L191.428 98.0423L199.48 94.1261L204.984 105.443C204.71 105.527 204.45 105.653 204.214 105.817C204.514 106.433 203.662 106.638 203.991 107.315C204.777 107.542 204.793 107.183 205.676 106.963C205.464 106.723 205.416 106.546 205.448 106.397ZM203.398 118.76C203.732 118.722 204.01 118.805 204.352 118.763C204.208 117.919 203.161 118.095 203.398 118.76ZM29.1355 136.249C28.0883 136.71 27.0787 137.252 26.1161 137.87C27.1604 137.41 28.1673 136.869 29.1278 136.253L29.1355 136.249ZM32.3196 134.967C38.7394 131.902 42.9448 129.666 38.4184 131.849C34.9159 133.533 27.0661 137.475 32.2965 134.978L32.3196 134.967ZM74.492 114.362C75.0078 114.111 75.4321 113.828 75.7327 113.644L76.1992 113.351C75.611 113.57 71.1474 115.96 71.1474 115.96C72.2914 115.512 73.4014 114.981 74.4689 114.373L74.492 114.362ZM233.326 77.6942L245.389 71.8273L248.47 78.163L238.663 82.9329L243.346 92.5635C243.119 92.3903 242.863 92.2603 242.589 92.18C242.348 92.1735 242.083 92.5305 241.819 92.5544C241.554 92.5783 241.349 92.1165 241.073 92.4504C240.961 92.5908 241.117 93.0481 241.255 93.3138C241.463 93.2191 241.633 93.0562 241.735 92.852C242.046 93.491 242.698 93.0694 243.325 92.7738C243.283 93.2101 243.41 93.6458 243.679 93.9914L243.956 93.8566L255.862 118.337L247.756 122.28L230.533 86.8674L220.988 91.51L217.906 85.1743L232.756 77.9521C232.624 78.1323 232.548 78.3478 232.538 78.5712C232.528 78.7946 232.584 79.016 232.7 79.2072C233.145 79.1241 233.499 79.3041 233.913 79.3125C234.382 78.4179 233.422 78.3614 233.303 77.7054L233.326 77.6942ZM231.681 88.0133C231.904 88.0571 232.135 88.027 232.339 87.9277C232.543 87.8284 232.709 87.6652 232.813 87.4629C232.554 86.9318 232.107 86.8541 231.499 87.1499C231.572 87.4761 231.416 87.685 231.684 88.0402L231.681 88.0133ZM244.253 110.752C244.025 110.986 243.167 111.004 243.404 111.393C243.769 111.558 244.466 111.267 244.257 110.778L244.253 110.752ZM236.02 92.1001C235.781 92.2162 235.638 91.9811 235.364 92.181L235.548 92.5582C235.786 92.4422 235.925 92.6695 236.199 92.4696L236.02 92.1001ZM241.79 102.535C241.921 102.489 242.031 102.398 242.102 102.278C242.173 102.159 242.199 102.018 242.176 101.881C242.04 101.928 241.926 102.024 241.856 102.149C241.785 102.275 241.763 102.421 241.793 102.562L241.79 102.535ZM249.141 115.694C248.674 115.712 248.531 116.591 249.038 116.44C248.876 116.185 249.455 116.123 249.13 115.729L249.141 115.694ZM121.26 91.5402C121.957 91.239 122.622 90.8679 123.244 90.4326C122.544 90.7484 121.875 91.1308 121.248 91.5745L121.26 91.5402ZM98.8881 102.478L99.9197 101.976C99.4195 102.2 99.0806 102.384 98.8763 102.512L98.8881 102.478ZM116.096 93.9376C112.248 95.6565 103.078 100.269 99.901 101.938C102.087 100.874 106.607 98.9905 108.081 98.2639C110.417 97.118 116.365 93.8449 116.084 93.972L116.096 93.9376ZM80.3845 111.544C81.0824 111.238 81.7504 110.869 82.3799 110.44C81.6766 110.755 81.0045 111.136 80.3726 111.578L80.3845 111.544ZM58.9247 122.047C66.6705 118.166 55.6288 123.393 55.7443 123.337C43.9694 129.092 55.6671 123.746 58.9129 122.081L58.9247 122.047ZM66.992 117.828C65.9428 118.285 64.9329 118.827 63.9725 119.449C65.0148 119 66.0205 118.469 66.9802 117.863L66.992 117.828ZM149.273 78.0114C151.252 76.9726 152.932 76.0416 152.932 76.0416C151.49 76.5618 144.88 80.2526 143.758 80.6653C145.637 79.8888 147.474 79.0144 149.261 78.0457L149.273 78.0114ZM125.367 89.5332C127.507 88.7252 129.569 87.7226 131.526 86.538L130.433 87.0122L128.098 88.0815L126.927 88.6506C126.943 88.9571 126.425 89.0471 126.158 89.025C125.422 89.3921 125.087 89.6028 125.332 89.5787L125.367 89.5332ZM21.6539 193.11L21.71 193.225C21.7113 193.182 21.7092 193.138 21.7039 193.095L21.6539 193.11ZM106.826 227.84C108.112 227.273 109.362 226.627 110.569 225.906C109.279 226.487 108.026 227.147 106.818 227.882L106.826 227.84ZM182.338 190.506L182.401 190.637C184.026 189.847 185.67 188.962 185.67 188.962C184.529 189.43 183.414 189.96 182.33 190.548L182.338 190.506ZM248.574 32.7915L277.737 18.8274C277.719 18.8011 277.706 18.7727 277.696 18.7427C278.148 18.5536 278.537 18.2391 278.816 17.8362L248.557 32.2859C248.607 32.3681 248.635 32.4622 248.636 32.5585C248.638 32.6548 248.614 32.7498 248.566 32.8335L248.574 32.7915ZM174.489 150.078L189.763 142.65L192.829 148.955L169.441 160.329L158.397 137.619C158.454 137.565 158.526 137.53 158.604 137.518C158.374 137.24 158.313 136.47 157.925 136.649L149.156 118.62L160.096 113.3C159.763 113.633 159.8 114.395 160.206 114.388C160.094 114.157 160.358 114.172 160.583 114.205C160.632 113.845 160.537 113.481 160.319 113.191L162.305 112.225C162.596 112.198 162.73 112.609 163.124 112.265C163.119 112.195 163.097 112.128 163.058 112.07C163.02 112.012 162.967 111.965 162.905 111.933L172.459 107.287L175.54 113.622L160.321 121.024L165.117 130.886C164.797 131.127 164.481 131.652 165.021 131.608C164.924 131.408 165.116 131.296 165.252 131.163L165.506 131.687L178.262 125.483L181.329 131.788L168.573 137.992L174.489 150.078ZM169.956 135.453C170.196 135.555 171.344 135.273 171.265 134.817C170.671 135.162 170.14 132.993 169.779 134.149C170.421 134.218 169.871 135.142 169.948 135.495L169.956 135.453ZM163.535 134.406L163.262 133.844C163.145 133.72 163.082 133.475 162.886 133.561C163.121 133.827 163.134 134.677 163.52 134.452L163.535 134.406ZM166.966 151.776C166.559 151.917 166.516 150.967 166.03 151.279C165.64 151.964 166.891 152.679 166.958 151.818L166.966 151.776ZM163.574 146.229C163.966 146.134 164.171 146.596 164.693 146.142C164.465 145.672 164.77 145.381 164.134 145.462C164.53 146.002 163.176 145.823 163.558 146.275L163.574 146.229ZM168.262 153.011L167.323 153.468C167.489 154.358 168.806 153.718 168.254 153.053L168.262 153.011ZM164.157 144.08C163.933 144.189 163.806 143.889 163.691 143.612C162.514 144.127 164.105 144.933 164.148 144.122L164.157 144.08ZM160.944 138.903C161.455 138.721 161.68 138.459 161.44 137.967C160.982 138.57 160.703 137.783 160.397 137.779C160.091 137.776 159.789 138.075 159.364 138.043C159.509 139.144 160.007 138.131 160.11 138.147C160.274 138.175 160.429 138.243 160.56 138.345C160.691 138.448 160.795 138.581 160.861 138.734C160.627 138.87 160.449 139.086 160.361 139.342C160.272 139.598 160.279 139.878 160.379 140.13C160.832 140.709 161.621 140.316 162.102 139.758C161.854 138.994 161.26 139.358 160.943 138.941L160.944 138.903ZM161.134 136.907C161.373 136.791 161.504 137.022 161.786 136.818C161.74 136.688 161.649 136.579 161.53 136.51C161.411 136.44 161.271 136.415 161.135 136.44C161.24 136.713 161.101 136.818 161.145 136.987L161.134 136.907ZM164.672 137.975C164.401 137.411 164.335 136.77 164.485 136.162C163.909 136.271 164.287 136.715 163.898 136.914C163.341 136.766 163.444 136.411 163.147 136.328C163.282 136.605 162.977 136.41 162.954 136.421C162.646 136.571 162.37 137.001 161.83 136.968C161.84 137.439 161.706 137.847 162 138.275C162.192 138.553 162.646 138.371 162.751 138.862L163.691 138.405C163.237 137.883 163.699 137.678 163.878 137.362C164.187 137.783 164.221 138.537 164.682 138.056L164.672 137.975ZM164.895 136.477L164.518 136.661L164.697 137.03L165.074 136.847L164.895 136.477ZM162.09 128.322C161.951 128.037 161.811 127.591 161.523 127.646C161.388 128.111 161.609 128.566 162.081 128.402L162.09 128.322ZM172.243 146.849L171.866 147.033L172.049 147.41L172.426 147.226L172.243 146.849ZM167.325 138.341C167.736 138.208 167.941 138.67 168.368 138.529C168.223 138.152 167.316 137.717 167.347 138.407L167.325 138.341ZM248.414 32.384L248.384 32.3224L242.995 34.9432L235.813 38.4363L231.594 40.4881L230.824 40.8625C230.92 40.9008 231.007 40.9592 231.079 41.0337C231.11 41.371 230.886 41.1273 230.808 40.9274C230.694 41.1049 230.594 41.2907 230.507 41.483L248.335 32.9459C248.021 32.9271 248.545 32.7108 248.406 32.4643L248.414 32.384ZM74.4865 154.945L106.623 190.919L98.1547 195.037L94.9957 191.243C95.1944 191.28 95.3865 191.224 95.6193 190.94C95.4945 190.448 94.8445 190.365 94.4134 190.574L91.4572 187.138L81.026 192.211L83.0621 202.387L74.6401 206.483L66.176 158.996L74.4865 154.945ZM73.66 159.783C73.841 159.809 74.0254 159.798 74.2022 159.751C74.379 159.705 74.5446 159.623 74.689 159.511C74.5006 158.888 73.4407 159.175 73.6907 159.768L73.66 159.783ZM83.5253 189.149C83.0075 189.239 83.162 189.811 83.0288 190.085C82.8956 190.36 82.6284 190.632 82.5323 191.022C83.2575 191.221 83.1972 190.784 83.3816 190.38C83.5872 189.999 83.6492 189.557 83.5561 189.134L83.5253 189.149ZM81.7624 187.912C81.9623 188.538 82.4548 188.318 82.9749 188.017C82.8058 187.376 82.3133 187.597 81.7932 187.897L81.7624 187.912ZM86.6442 181.607L76.7325 170.054L76.5632 170.136L79.531 185.066L86.6442 181.607ZM77.4449 162.359C77.1791 161.812 76.3082 161.627 76.4916 162.356C76.8713 162.295 77.1499 162.378 77.4757 162.344L77.4449 162.359ZM98.3779 190.055C98.1955 190.03 98.0099 190.042 97.832 190.089C97.654 190.137 97.4873 190.219 97.3412 190.331C97.5873 190.934 98.651 190.636 98.4087 190.04L98.3779 190.055ZM98.691 188.741C98.7472 188.857 98.7996 188.965 98.5961 189.016C98.5474 188.916 98.3411 188.883 98.4037 189.11C98.7679 189.408 99.3922 188.695 98.6987 188.738L98.691 188.741ZM91.2096 177.273C91.3803 177.526 91.4456 177.836 91.3915 178.136C92.0783 178.355 92.5 177.597 93.0851 177.313C92.8707 176.265 92.1737 176.633 91.5956 176.638C91.7191 176.892 91.3234 177.018 91.2557 177.251L91.2096 177.273ZM88.9104 173.974C89.1875 173.839 89.6369 173.707 89.5904 173.415C89.1855 173.679 89.1166 172.97 88.755 173.126C88.8401 173.399 88.6809 173.6 88.9565 173.952L88.9104 173.974ZM96.5894 189.763C97.2812 189.522 97.0102 188.045 96.3187 188.267C96.2689 188.967 95.9848 189.029 96.6355 189.741L96.5894 189.763ZM92.989 185.708C93.4586 185.479 93.7463 185.777 93.6653 185.141C93.326 185.011 92.8758 185.22 93.0353 185.685L92.989 185.708ZM86.8535 174.051C86.9773 173.934 87.2231 173.872 87.1371 173.675C86.8831 173.799 86.7991 173.43 86.5765 173.482C86.6767 173.766 86.5567 173.891 86.8998 174.029L86.8535 174.051ZM88.655 180.143C88.7463 180.546 88.2809 180.744 88.7346 181.266L89.5044 180.891C89.4568 180.7 89.3561 180.526 89.214 180.39C89.0719 180.254 88.8941 180.16 88.7011 180.121L88.655 180.143ZM86.3665 179.352C86.5315 179.32 86.6647 179.398 86.7424 179.636C87.2029 179.545 88.3719 179.424 88.1885 178.695C87.8348 178.476 86.3427 178.383 86.4468 179.361L86.3665 179.352ZM78.3221 162.322C78.1859 162.179 77.4134 161.746 77.5767 162.219C77.7922 162.114 77.9191 162.414 78.0348 162.691C78.6821 162.319 78.9932 162.919 79.6245 162.612C79.5099 161.888 79.0114 161.959 78.4136 162.354L78.3221 162.322ZM130.528 216.113C132.231 215.356 133.896 214.511 135.513 213.584C134.759 213.931 129.946 216.406 130.619 216.145L130.528 216.113ZM111.705 225.267C112.991 224.7 114.241 224.054 115.448 223.333C114.2 223.931 112.987 224.601 111.815 225.338L111.705 225.267ZM124.788 177.791C120.87 176.429 117.723 173.311 115.346 168.438L109.326 156.059C106.967 151.209 106.419 146.82 107.683 142.893C108.071 141.695 108.622 140.556 109.32 139.508C109.384 139.491 109.444 139.462 109.497 139.421C109.483 139.381 109.464 139.342 109.441 139.306C109.546 139.15 109.644 138.979 109.76 138.827C110.13 138.647 110.582 138.56 110.725 138.129C110.695 138.034 110.651 137.943 110.594 137.86C112.144 136.166 114.013 134.794 116.094 133.824C120.662 131.602 124.709 131.005 128.235 132.031C131.761 133.058 134.576 135.836 136.677 140.367L136.706 140.563L128.854 144.382C127.554 141.71 126.164 140.064 124.704 139.451C123.244 138.837 121.393 139.081 119.175 140.16C117.809 140.751 116.708 141.825 116.083 143.177C115.107 143.538 115.408 144.333 114.71 144.797C114.615 144.757 114.53 144.695 114.462 144.617C114.395 144.539 114.346 144.446 114.321 144.346C114.295 144.246 114.293 144.141 114.315 144.04C114.336 143.939 114.381 143.845 114.446 143.764C114.543 143.964 114.756 143.794 114.541 143.489C113.982 144.042 113.257 144.394 112.478 144.493C112.285 145.662 113.45 145.924 113.953 146.098C114.457 146.272 114.432 146.398 114.996 146.285C115.257 146.235 115.208 146.563 115.364 146.573C115.473 146.571 115.581 146.556 115.686 146.53C115.945 148.454 116.531 150.32 117.418 152.047L117.721 152.671C117.638 152.819 117.592 152.986 117.585 153.155C117.677 153.091 117.779 153.042 117.886 153.009L123.46 164.472C124.938 167.51 126.577 169.496 128.376 170.43C129.317 170.889 130.356 171.11 131.403 171.074C132.449 171.038 133.47 170.746 134.378 170.224C136.379 169.251 137.568 168.015 137.929 166.526C138.29 165.037 137.815 162.945 136.494 160.228L144.315 156.424L144.459 156.563C146.71 160.996 147.191 164.887 145.901 168.237C144.611 171.587 141.786 174.338 137.425 176.49C133 178.77 128.827 179.225 124.906 177.857L124.788 177.791ZM138.422 160.689C138.239 160.312 138.822 160.2 138.425 159.736L137.655 160.11C137.955 160.65 138.19 160.878 138.544 160.763L138.422 160.689ZM139.104 174.56C138.858 174.68 138.774 174.311 138.551 174.363C138.352 175.069 139.462 175.452 139.265 174.615L139.104 174.56ZM136.764 174.994C136.592 174.64 137.324 174.56 137.053 174.158C136.589 173.87 136.132 175.044 136.886 175.068L136.764 174.994ZM132.657 174.202C133.002 174.91 133.741 174.474 134.348 174.332C134.094 173.77 133.092 173.667 132.779 174.276L132.657 174.202ZM127.818 139.355C128.268 139.517 129.104 139.005 128.758 138.431C128.656 138.368 128.543 138.328 128.424 138.312C128.306 138.296 128.186 138.305 128.071 138.338C127.956 138.372 127.85 138.429 127.759 138.506C127.667 138.583 127.593 138.678 127.541 138.785L127.818 139.355ZM112.698 153.676C112.334 152.321 111.311 152.78 110.566 152.619C110.345 153.574 111.449 153.75 111.849 154.318C112.462 154.248 112.214 153.854 112.82 153.75L112.698 153.676ZM114.252 156.871C115.168 157.13 114.485 155.901 114.252 156.871V156.871ZM21.8973 193.61C24.1437 198.229 26.4462 202.964 28.6365 207.467C28.7013 207.431 28.7682 207.398 28.8367 207.37L28.2488 206.161C28.451 206.577 28.6457 206.977 28.8329 207.362C28.4273 206.293 25.0065 199.494 23.2169 195.815L22.1161 193.551L21.9929 193.611L21.8973 193.61ZM22.2927 192.466C22.1786 192.473 22.0673 192.504 21.9662 192.558C22.0949 192.606 22.2302 192.633 22.3673 192.639L22.2927 192.466ZM284.95 104.238L283.864 104.766L263.568 63.0336L286.871 51.7005L289.952 58.0362L284.902 60.4922C284.929 60.4467 284.95 60.3981 284.965 60.3475C284.813 59.5648 283.667 60.0269 283.936 60.6195C284.118 60.6315 284.3 60.6578 284.479 60.6982L274.663 65.4718L279.849 76.134L292.605 69.9301L295.671 76.2351L282.915 82.4389L288.812 94.5637L304.093 87.1318L307.159 93.4367L286.004 103.725C285.96 103.549 285.881 103.384 285.771 103.24C285.661 103.095 285.524 102.974 285.367 102.884C284.568 103.082 284.734 103.658 284.877 104.226L284.95 104.238ZM300.105 92.9266C299.905 93.024 299.669 93.2434 300.01 93.2012C300.28 93.0128 300.189 92.6289 300.299 92.366C300.409 92.103 300.815 92.1151 300.493 91.8052C300.171 91.4954 300.297 92.2242 299.723 92.1797C299.494 91.7101 299.153 91.7331 298.786 91.6832C298.957 92.8949 299.713 92.3557 300.032 92.9143L300.105 92.9266ZM276.082 60.717C276.026 60.7294 275.972 60.7529 275.925 60.786C275.878 60.8191 275.837 60.8612 275.806 60.9099C275.775 60.9587 275.754 61.013 275.744 61.0699C275.734 61.1268 275.735 61.1852 275.747 61.2416C275.76 61.2981 275.783 61.3515 275.816 61.3989C275.849 61.4463 275.891 61.4867 275.94 61.5178C275.989 61.5489 276.043 61.5701 276.1 61.5802C276.157 61.5903 276.215 61.5891 276.272 61.5766C275.97 61.2096 276.197 61.0322 276.01 60.7047L276.082 60.717ZM274.215 58.8357C274.357 58.8335 275.167 58.9534 274.985 58.4613C274.771 58.4513 273.961 58.3314 274.166 58.8122L274.215 58.8357ZM273.907 61.0798L274.285 60.8963C274.361 60.5258 274.26 60.3371 273.827 60.4242C273.878 60.6468 273.654 60.7745 273.858 61.0562L273.907 61.0798ZM278.609 82.0011L278.986 81.8176L278.806 81.4481L278.429 81.6316L278.609 82.0011ZM278.765 85.1805C279.235 84.9521 279.212 84.6111 279.262 84.2441C278.641 84.6699 278.046 82.6649 277.776 83.5769C278.48 83.6344 277.89 85.0254 278.716 85.157L278.765 85.1805ZM284.696 99.488C285.343 99.8397 285.105 98.8225 284.705 99.0171C284.749 99.1861 284.61 99.2918 284.646 99.4645L284.696 99.488ZM25.0893 138.284C24.0405 138.741 23.0296 139.28 22.0661 139.897C21.8805 140.063 26.7464 137.64 25.0397 138.26L25.0893 138.284ZM359.17 108.836L351.656 112.49C351.613 112.433 351.581 112.368 351.563 112.298L351.001 112.571C351.007 112.65 351.007 112.73 351.002 112.809L350.309 113.146C346.291 115.1 328.869 123.259 340.91 117.307C352.586 111.543 339.01 118.098 335.746 119.686C326.747 124.062 319.179 127.743 329.692 122.896C343.792 116.363 322.187 126.88 312.411 131.577L301.345 136.892C301.346 136.785 301.323 136.679 301.279 136.582L311.226 131.744C315.76 129.539 328.24 123.393 318.333 128.155C313.159 130.671 307.148 133.537 301.185 136.427C301.131 136.362 301.071 136.302 301.004 136.249C302.296 135.697 302.908 135.447 302.829 135.285C302.511 134.631 307.758 133.031 306.969 133.405C310.048 131.907 307.103 133.073 309.891 131.584C312.26 130.308 317.42 127.923 320.175 126.716C324.195 124.942 325.161 124.539 330.511 121.956C333.682 120.413 338.751 117.643 333.538 120.35C337.943 118.056 340.522 116.763 343.716 115.267C341.457 116.318 340.807 116.977 339.345 117.593C339.137 117.694 338.922 117.799 338.657 117.861C338.842 117.771 339.065 117.662 339.345 117.593C343.207 116 352.654 110.92 345.786 114.375C350.013 112.243 353.789 110.377 357.219 108.7C357.312 108.823 357.442 108.915 357.589 108.963C357.737 109.01 357.895 109.011 358.043 108.965L351.423 112.128L348.344 113.625L347.389 114.09L347.027 114.266C347.131 114.263 348.366 113.71 350.367 112.775L358.257 109.052L359.026 108.678C359.055 108.725 359.089 108.769 359.128 108.809L359.17 108.836ZM351.985 111.502C353.035 111.048 354.047 110.511 355.012 109.897C353.951 110.345 352.925 110.872 351.943 111.475L351.985 111.502ZM318.176 127.812C317.128 128.271 316.116 128.807 315.149 129.418C316.185 128.953 317.183 128.407 318.134 127.785L318.176 127.812ZM14.2182 177.821C14.7462 178.906 15.2591 179.961 15.7421 180.954C17.528 184.626 19.4262 188.529 21.3581 192.502C21.4148 192.43 21.4455 192.341 21.4451 192.25C19.1013 187.431 16.7313 182.558 14.3314 177.623C14.3056 177.695 14.2673 177.762 14.2182 177.821ZM280.084 17.7429L280.361 17.6081C280.302 17.596 280.241 17.6037 280.186 17.6301C280.132 17.6565 280.088 17.7001 280.061 17.7541L280.084 17.7429ZM344.966 76.7727C347.345 81.8219 354.166 96.277 359.034 106.58L359.817 108.189L359.293 108.443C359.323 108.505 359.36 108.582 359.463 108.656L360.187 108.304L359.292 106.464C355.078 97.6423 351.446 90.1558 348.506 83.8753C343.96 74.273 337.713 61.6237 344.943 76.7839L344.966 76.7727ZM324.113 32.779C324.242 33.1633 325.816 36.2817 326.093 36.8514C327.014 38.7452 327.467 39.6767 327.591 39.9307C327.179 39.0456 323.796 31.9524 324.089 32.7902L324.113 32.779ZM332.781 51.2285C332.934 51.5441 333.981 53.8528 335.186 56.3699C335.309 56.4727 335.422 56.5867 335.523 56.7105C333.887 53.3655 332.52 50.5747 332.758 51.2397L332.781 51.2285ZM341.371 70.8487L341.408 70.9256C341.536 71.4822 341.365 71.0132 341.325 70.8902L341.371 70.8487ZM319.282 22.5725C319.716 23.7255 320.237 24.8435 320.842 25.9167C321.092 26.4325 321.364 26.8528 321.544 27.1649C321.724 27.477 321.833 27.6428 321.826 27.6274C321.549 27.0386 319.217 22.5756 319.217 22.5756L319.282 22.5725ZM336.183 58.008L336.01 58.0061C337.339 60.739 338.586 63.3025 338.68 63.495C341.876 70.2224 338.902 63.8343 336.117 58.0111L336.183 58.008ZM331.088 47.0444C330.643 45.991 330.114 44.9751 329.506 44.0063C329.934 45.0568 330.442 46.0734 331.023 47.0475L331.088 47.0444ZM188.17 190.754L188.516 190.586C188.524 190.563 188.428 190.6 188.105 190.757L188.17 190.754ZM82.8547 111.475C83.2165 111.299 86.3728 109.764 86.9502 109.483C96.4901 104.691 81.6557 111.887 82.8547 111.475ZM169.295 68.3689L171.805 67.1483C171.792 67.0786 171.793 67.0072 171.807 66.9378C170.279 67.6504 168.791 68.4443 167.348 69.3161L169.295 68.3689ZM203.455 183.292C203.071 183.421 199.937 185.003 199.367 185.28C189.786 190.025 204.635 182.861 203.455 183.292ZM172.839 66.436C172.771 66.4582 172.706 66.4897 172.646 66.5296C172.599 66.561 172.561 66.6043 172.535 66.6551C172.51 66.7058 172.498 66.7624 172.502 66.8191L173.518 66.3248C176.443 64.9021 178.992 63.5862 177.565 64.1946C176.795 64.569 174.837 65.4549 172.9 66.4635L172.839 66.436ZM87.8655 109.114L91.9764 107.115C102.355 101.991 95.5107 105.32 87.8578 109.118L87.8655 109.114ZM139.106 84.1365C139.47 83.9873 139.813 83.7916 140.127 83.5542C139.795 83.7683 139.449 83.959 139.091 84.1248L139.106 84.1365ZM334.977 56.2718L334.703 55.7099C334.751 55.9248 334.664 56.1191 334.977 56.2718ZM103.25 101.641C103.643 101.45 104.99 100.795 106.207 100.204C109.386 98.6573 113.313 96.6713 113.528 96.5665C120.685 93.0003 113.661 96.3879 107.94 99.208C107.348 99.4963 106.231 100.039 105.223 100.53C103.275 101.477 101.981 102.163 102.281 102.056L103.25 101.641ZM80.7994 112.455C80.3496 112.627 81.5143 112.203 80.7994 112.455V112.455ZM124.795 91.0583C123.748 91.5193 122.739 92.0612 121.776 92.6791C122.825 92.2235 123.837 91.6867 124.803 91.0737L124.795 91.0583ZM119.597 93.4439C118.729 93.8291 117.892 94.2807 117.093 94.7947C117.961 94.4097 118.798 93.9581 119.597 93.4439ZM197.328 187.233L195.126 188.304C195.149 188.368 195.162 188.435 195.166 188.503L197.222 187.504C197.263 187.416 197.298 187.325 197.328 187.233ZM348.944 86.8511C348.896 86.751 348.843 86.6432 348.787 86.5277C348.731 86.4123 348.6 86.1428 348.413 85.7579C348.757 86.4662 349.098 87.1667 349.435 87.8596C349.547 88.0905 349.637 88.2753 349.743 88.3568C349.473 87.8791 349.222 87.3633 348.967 86.8399L348.944 86.8511ZM172.02 67.3957C171.978 67.3799 171.938 67.3575 171.903 67.3293L168.469 68.9992L168.514 69.0915L172.02 67.3957ZM206.227 182.905L204.426 183.781C204.445 183.85 204.477 183.916 204.52 183.973L206.313 183.101L206.227 182.905ZM271.87 151.075C263.694 155.051 256.396 158.601 251.924 160.776L247.743 162.809C247.713 162.747 247.474 162.94 247.461 162.718C247.448 162.496 247.936 162.325 247.933 162.26C247.911 162.143 247.858 162.034 247.78 161.944C248.249 161.716 248.195 161.742 247.78 161.944C247.659 161.773 247.566 161.583 247.506 161.382C253.217 158.522 258.944 155.664 264.688 152.807C264.679 152.867 264.679 152.928 264.689 152.987C264.769 152.958 264.841 152.911 264.9 152.851C264.96 152.791 265.005 152.718 265.034 152.639C267.228 151.572 269.43 150.501 271.601 149.388C271.475 149.593 271.409 149.83 271.41 150.071L265.713 152.841C265.588 152.702 265.468 152.532 265.236 152.683C265.263 152.828 265.239 152.978 265.167 153.107L250.712 160.28C250.656 160.421 250.528 160.607 251.579 160.106C254.304 158.781 253.679 158.885 255.569 157.899C257.587 156.841 263.214 154.181 265.077 153.275L265.045 153.366L262.736 154.49C255.656 157.999 261.333 155.343 264.97 153.565C264.988 153.74 265.068 153.904 265.195 154.026C265.431 153.992 265.647 153.872 265.802 153.69C265.957 153.508 266.04 153.276 266.036 153.036L266.914 152.61C268.377 151.841 269.122 151.279 269.889 150.896L271.428 150.148C271.448 150.372 271.515 150.589 271.624 150.785C271.677 150.905 271.771 151.001 271.889 151.056L271.87 151.075ZM264.078 154.627C264.322 154.327 249.758 161.353 248.728 162.092C249.739 161.56 250.785 161.095 251.859 160.703C254.4 159.467 257.464 157.977 259.889 156.798L262.914 155.326L263.807 154.892L264.078 154.627ZM340.26 70.2468C342.749 75.3662 345.402 81.0157 348.553 87.6125C350.387 91.4804 354.522 100.14 355.773 102.673C355.874 102.881 355.971 103.081 356.065 103.274C355.855 102.842 355.119 101.192 353.518 97.7822C349.652 89.3436 343.716 76.9427 340.31 70.2129L340.26 70.2468ZM204.337 183.834L203.953 184.021C203.974 184.143 204.02 184.121 204.388 183.8L204.337 183.834ZM297.521 137.563C295.596 138.499 290.956 140.879 289.39 141.65C294.778 139.029 291.176 141.096 287.394 142.754C285.825 143.441 279.31 146.409 273.425 149.262L273.396 149.438L275.113 148.603C277.184 147.596 280.325 146.068 282.325 145.229C283.121 144.908 276.513 148.056 273.41 149.564C273.395 149.717 273.432 149.87 273.516 149.998C273.525 150.104 273.573 150.203 273.651 150.275C282.366 146.037 291.926 141.445 300.079 137.518C299.992 137.454 299.915 137.38 299.847 137.297C292.811 140.719 284.914 144.76 277.399 148.215C271.593 150.877 276.238 148.684 280.426 146.609C285.776 144.007 292.679 140.584 299.746 137.147C299.746 137.147 299.723 137.101 299.712 137.077C299.961 136.819 300.255 136.608 300.58 136.455C300.057 136.71 299.441 137.009 298.695 137.315C303.895 134.776 300.08 136.346 297.567 137.521L297.521 137.563ZM203.375 184.302L198.032 186.9C198.048 186.973 198.052 187.048 198.045 187.122L203.48 184.479C203.485 184.372 203.451 184.322 203.425 184.268L203.375 184.302ZM133.289 218.502C125.39 222.343 119.221 225.61 111.907 229.167L110.368 229.916C110.331 229.743 110.238 229.551 110.201 229.378L113.804 227.626C112.619 228.202 111.379 228.805 110.217 229.371C110.203 229.315 110.208 229.256 110.23 229.202C110.25 229.126 110.591 229.103 110.6 229.023C110.65 228.617 110.397 228.274 110.524 227.908C110.177 228.076 110.101 227.333 109.772 227.321C109.272 227.486 108.856 227.837 108.608 228.302C108.361 228.766 108.302 229.308 108.443 229.814C108.571 229.885 108.703 229.948 108.839 230.003L54.951 256.211L53.754 257.136L55.1157 256.549L108.946 230.008C109.266 230.139 109.615 230.18 109.956 230.126L53.2038 257.727L52.2453 255.756C47.3594 245.71 42.2808 235.424 37.0306 224.727C34.8141 220.169 32.0847 214.557 29.1681 208.56L29.4068 208.444C31.9174 213.411 35.4672 220.318 36.2372 222.371C36.2109 222.317 34.7882 219.392 33.12 216.157C36.4897 223.086 39.8368 229.968 43.2289 236.943C42.1057 234.633 37.4306 224.903 37.4194 224.88C38.0017 225.549 45.7199 241.947 47.1539 244.896C48.6515 247.975 50.2764 251.316 52.3955 255.673L52.8673 256.643L52.5015 255.441C45.6824 241.537 39.8744 229.341 35.4774 220.437C33.5043 216.38 31.505 212.269 29.433 208.146C29.4835 207.967 29.4949 207.78 29.4665 207.597C29.4381 207.413 29.3706 207.238 29.2686 207.083L28.9838 207.222C26.771 202.672 24.5434 198.092 22.2433 193.48L22.5358 193.338C22.8653 194.015 23.191 194.685 23.5093 195.339C24.0801 196.356 24.9653 198.02 24.678 197.331C24.3908 196.643 23.9831 195.766 23.5525 194.88C23.2156 194.187 22.8787 193.495 22.4953 192.843C22.4924 192.784 22.4956 192.725 22.5049 192.667L22.3977 192.662L22.3004 192.462C22.4914 192.504 22.6884 192.511 22.8821 192.484C22.9136 191.707 23.6782 192.163 23.7251 191.379C23.5018 191.488 23.5162 191.224 23.5454 191.009C23.1657 190.854 22.7945 190.678 22.4332 190.484C22.7694 190.549 23.6017 189.716 22.9126 189.708C22.9144 190.241 22.3071 190.108 22.0709 190.346C22.0709 190.346 22.1533 190.516 22.1608 190.531C22.1682 190.546 21.8304 190.635 21.7913 190.711C21.7521 190.787 21.7257 191.104 21.6892 191.284C21.079 190.029 20.5436 188.928 20.1916 188.205C19.66 187.111 19.0222 185.917 18.3964 184.689C19.4934 186.945 20.5941 189.208 21.6649 191.41C21.62 191.452 21.5638 191.479 21.5033 191.489C21.4471 191.373 21.3588 191.387 21.2893 191.44C15.0181 178.546 8.59709 165.343 2.08622 151.956L1.18269 150.215C1.15396 150.274 1.13775 150.338 1.13506 150.403C1.13236 150.468 1.14318 150.533 1.16698 150.594L1.79369 152.098C5.96453 160.674 9.96689 168.903 13.8644 176.917C13.8161 176.895 13.7645 176.882 13.7117 176.877C13.7331 176.934 13.7429 176.994 13.7405 177.054C11.3293 172.096 8.50508 166.406 5.76777 160.817L5.89023 161.167L5.83781 161.059L5.72924 160.836C4.29528 157.887 2.87626 154.97 1.50115 152.24L0.449075 150.077L2.63546 149.014C10.1105 145.378 16.3313 142.296 18.7816 141.247C20.205 140.631 10.254 145.556 10.662 145.358L2.73281 149.214L2.2247 149.461L3.03196 149.164C47.6297 127.34 93.9856 105.1 137.026 84.2821C129.171 87.9593 147.973 78.8815 152.107 76.8519C156.242 74.8222 162.169 71.9584 168.012 69.1167L168.057 69.2091L157.726 74.2335L168.057 69.2091L168.147 69.3938L168.524 69.2104C168.491 69.1411 168.461 69.0795 168.427 69.0102L178.635 64.0456L182.669 62.0837L178.459 64.0552C176.511 65.0024 174.44 66.0095 172.3 67.0504C172.314 67.0032 172.322 66.9544 172.325 66.9052C175.019 65.5948 177.583 64.348 179.735 63.2154C184.605 60.742 185.678 59.9919 189.763 57.9387C192.411 56.6508 194.015 55.9946 197.032 54.5461C197.302 54.3963 197.579 54.2613 197.864 54.1417L197.925 54.1118C202.429 51.9215 207.54 49.4354 212.811 46.8057C212.914 47.0037 212.944 47.2318 212.895 47.4498C213.176 47.3802 213.377 47.5393 213.755 47.2602L213.575 46.8907C213.519 46.7752 213.467 46.6674 213.301 46.7958C213.349 46.8958 213.248 47.0785 213.116 46.8856C213.075 46.8009 213.041 46.7317 212.941 46.742C221.16 42.6974 229.833 38.4128 237.576 34.7611C238.646 34.2407 240.52 33.4152 242.132 32.6978L245.133 31.3716C246.01 30.9448 248.176 29.663 252.657 27.4457C270.688 18.524 289.062 9.74019 306.65 1.06254L308.067 0.373648L308.756 1.79016C309.467 3.25283 310.171 4.70013 310.871 6.13972C310.805 6.55249 310.812 6.97754 310.311 7.24005C310.13 7.19627 309.939 7.20752 309.764 7.2724C309.589 7.33729 309.437 7.4529 309.327 7.60443C308.908 6.74222 308.496 5.89538 308.073 5.02547L307.887 4.91626L309.272 7.7646C309.255 7.86862 309.264 7.97533 309.299 8.07479C309.334 8.17426 309.394 8.26323 309.472 8.33341L309.56 8.35738C310.013 9.28888 310.569 10.256 311.098 11.2457C310.634 10.2911 310.162 9.32114 309.694 8.35885C309.825 8.29519 309.85 8.14997 310.027 8.06386C310.204 7.97775 310.32 8.15898 310.305 8.16647C310.498 8.07286 310.435 7.88458 310.581 7.7943C310.727 7.70403 310.955 7.91705 311.237 7.71341C311.237 7.71341 311.34 7.37767 311.395 7.23661C312.144 8.77628 312.926 10.3852 313.69 11.9557L315.064 14.7809C315.567 15.6977 316.718 17.9654 316.876 18.5069C316.921 18.5993 316.876 18.5069 316.82 18.3915C317.754 20.3109 318.716 22.2894 319.707 24.3269C319.744 24.4038 319.789 24.4962 319.845 24.6117C320.912 26.8057 322.013 29.069 323.086 31.3932C322.691 30.987 322.213 30.6709 321.684 30.4666C321.785 31.0941 321.93 31.7137 322.119 32.3206C322.841 32.1601 322.791 31.7461 323.063 31.4045C324.055 33.4445 325.063 35.5153 326.023 37.6278C325.062 35.5536 324.165 33.5721 323.358 31.7179C324.807 34.6971 326.131 37.5562 327.434 40.2927C327.352 40.4426 327.249 40.5796 327.127 40.699C327.029 40.8319 327.141 41.1012 327.109 41.2884C326.768 40.5879 326.423 39.8796 326.09 39.1945C325.454 37.8858 324.967 36.885 324.593 36.1152C325.341 37.6548 326.09 39.1945 326.813 40.6803C325.134 37.0515 323.831 34.315 323.353 33.567L323.904 34.6987C323.529 33.9288 323.687 34.2522 324.055 35.1866C323.808 34.6785 323.561 34.1704 323.325 33.6854C323.623 34.4352 324.693 36.7327 326.205 39.9002C325.988 39.4537 325.774 39.0149 325.572 38.5992C324.902 37.2212 324.399 35.9905 324.059 35.2134C325.074 37.2996 326.118 39.4474 326.566 40.5243C326.704 40.8092 326.666 40.8471 326.624 40.839C326.728 41.0545 326.837 41.2777 326.946 41.501C326.667 41.7506 326.224 41.9755 326.244 42.2896C326.452 42.1885 326.63 42.359 326.793 42.4795C326.956 42.5999 327.207 42.4304 327.301 42.2323L327.372 42.3786C327.778 43.076 328.3 44.0122 328.611 44.632C329.199 45.8406 329.697 46.8645 330.159 47.9722C329.819 47.2716 329.339 46.2862 328.918 45.5963C329.345 46.4739 329.779 47.3669 330.225 48.283C330.305 48.4454 330.399 48.6003 330.507 48.7455C330.791 49.3306 331.049 49.9766 331.374 50.6655C331.531 50.9889 331.692 51.3199 331.853 51.6509L332.202 52.3668C332.426 52.8287 332.782 53.5601 333.201 54.4223C331.805 51.5508 330.425 48.4996 329.117 45.6521C328.506 44.3973 327.904 43.1578 327.343 41.9074C327.518 42.0106 327.683 42.1317 327.833 42.2688C327.955 42.1887 328.087 42.1245 328.226 42.0779C330.472 46.6969 332.51 51.0838 334.509 55.2904L334.359 55.3156C332.728 51.8251 331.059 48.3534 329.472 45.0319C331.134 48.45 332.716 51.9169 334.309 55.3304C333.791 55.4587 333.414 55.6421 333.452 54.8998C332.739 55.3896 332.969 55.6487 333.441 56.2856C332.964 56.5178 333.367 57.0927 333.607 57.5853C334.333 57.3751 334.865 57.7255 335.476 57.8662C335.903 58.7438 336.471 60.0288 337.181 61.568C336.867 60.9214 336.603 60.2025 336.27 59.46C336.015 58.9365 335.761 58.413 335.521 57.9203L335.735 57.9494C342.677 72.5552 349.016 85.8833 358.304 105.431C358.409 105.646 358.6 106.039 358.858 106.57L359.607 108.11L359.168 108.323C359.088 108.151 359.037 107.967 359.017 107.778C358.981 107.758 358.941 107.747 358.9 107.744C358.859 107.74 358.818 107.746 358.78 107.76L358.379 106.936C357.664 105.466 356.979 104.057 356.355 102.637C356.462 102.739 356.559 102.852 356.642 102.974C356.904 103.66 357.226 104.322 357.605 104.952C357.357 104.26 357.034 103.596 356.642 102.974C355.302 100.218 352.958 95.3985 351.891 92.9097C353.13 95.4578 354.021 97.29 354.137 97.5286C354.253 97.7673 352.873 94.7735 351.302 91.4254C351.302 91.4254 351.343 91.51 351.388 91.6024C351.388 91.6024 351.531 91.895 351.815 92.48C352.1 93.0651 352.523 93.935 353.032 94.982C354.05 97.0759 355.428 99.9089 356.836 102.803C358.99 107.077 359.831 108.962 356.951 102.747C351.9 92.0292 346.292 80.4588 340.395 68.4106C340.504 68.519 340.528 68.4503 340.218 67.7922C339.835 66.9836 339.407 66.1967 338.938 65.435L338.904 65.3658C338.92 65.3866 338.931 65.4101 338.938 65.435C339.421 66.4281 339.904 67.4212 340.387 68.4143C340.303 68.3245 340.227 68.2276 340.16 68.1247C340.565 68.9561 340.973 69.7952 341.319 70.6643C343.382 74.9061 344.01 75.9237 346.913 82.1656C347.081 82.512 349.33 87.2918 351.29 91.4597C351.161 91.3319 351.408 91.9357 351.863 92.9706C351.212 91.6311 350.463 90.0914 349.681 88.4825C349.888 88.791 349.75 88.4488 348.932 86.9428C347.326 83.6402 345.656 80.2068 344.493 77.6787C344.642 77.9866 344.789 78.2868 344.935 78.587C345.661 80.0805 346.582 81.9743 347.674 84.3562C347.925 84.872 348.164 85.3647 348.423 85.8959C348.16 85.357 347.842 84.7026 347.698 84.5824C348.376 85.9758 348.442 86.2292 347.698 84.5824L347.743 84.6748C348.247 85.8265 348.823 86.9453 349.467 88.0245C351.787 92.9315 353.983 97.6035 356.404 102.737C356.279 102.617 356.183 102.597 356.14 102.666C350.168 90.0729 343.306 75.5905 336.705 61.6662C336.623 61.4968 336.525 61.2967 336.428 61.0965L336.192 60.6115C336.342 60.9195 336.492 61.2274 336.642 61.5353C336.803 61.8801 336.946 62.2331 337.07 62.5929C339.742 68.2043 341.871 72.7569 342.358 74.0525C342.575 74.499 341.035 71.469 339.309 67.9201C338.775 67.0183 336.667 62.7416 335.636 60.368C334.254 57.5274 334.015 57.0347 336.966 63.3575C338.157 65.8055 339.31 68.1766 340.287 70.1859C342.345 74.5603 344.424 78.9783 346.524 83.44C347.756 85.9728 348.9 88.4625 349.872 90.5597C351.111 93.1079 352.289 95.7051 353.508 98.3104C352.661 96.7046 351.974 95.4106 351.813 95.0988C350.584 92.6886 349.018 89.528 347.31 86.0559C348.16 87.8034 349.834 91.5585 351.595 95.395C352.674 97.6121 353.585 99.6628 354.16 100.982C354.336 101.277 354.486 101.586 354.61 101.906C357.231 107.647 358.49 110.49 353.859 100.853C353.762 100.652 353.661 100.445 353.564 100.244C353.466 100.044 353.368 100.273 353.557 100.524C353.602 100.616 354.072 101.758 351.821 97.5606C349.351 92.9928 347.445 88.7604 345.786 85.3883C344.558 82.8633 343.342 80.3613 342.121 77.8517C342.294 77.8493 342.464 77.8012 342.613 77.712C342.762 77.6229 342.885 77.496 342.969 77.3442C342.744 76.8823 342.395 76.9091 342.139 76.5962C341.847 76.681 341.822 76.8644 341.705 77.0163C331.418 56.0988 321.6 35.9904 312.135 16.5099C312.527 16.5169 312.907 16.3794 313.204 16.1235C313.754 17.2552 314.309 18.3945 314.809 19.5409L320.395 31.0267C323.862 38.1554 327.333 45.2918 330.823 52.3517C326.171 42.6105 321.429 32.7227 316.507 22.5037C316.11 21.6877 315.837 21.1257 315.784 21.0179C314.936 19.273 314.082 17.5178 313.223 15.7523C313.33 15.4625 313.528 15.2044 313.467 14.8629C313.005 15.0876 313.106 14.2579 313.092 14.0931C312.987 14.0845 312.882 14.0974 312.782 14.1312C312.682 14.165 312.59 14.2189 312.512 14.2896C312.317 13.8893 312.119 13.4813 311.906 13.0425C311.393 11.9878 310.796 10.8787 310.245 9.80445C310.994 11.3441 311.67 12.8524 312.392 14.3764C311.956 14.6741 311.509 15.0061 311.175 14.34L311.091 14.3812L306.5 4.9431C306.5 4.9431 306.548 4.78668 306.573 4.60319L306.388 4.69304C306.426 4.77002 306.467 4.85466 306.508 4.93935L287.853 13.8695C287.905 13.6442 287.885 13.4066 287.948 13.1852C287.556 13.3761 287.043 12.9685 286.905 12.9976C286.219 13.0934 285.304 13.7764 284.575 13.9024C284.184 13.9593 284.012 13.6052 283.626 13.9073C283.886 14.247 284.452 14.6859 284.629 14.5615C284.683 14.5353 284.333 13.9533 284.827 14.0085C284.792 14.4203 284.907 14.8309 285.151 15.1645L283.242 16.093C283.254 16.0472 283.251 15.9985 283.232 15.9551C282.726 16.363 282.453 16.0958 282.018 16.3169C281.657 16.3972 281.675 16.8262 281.456 16.5902C281.508 16.5523 281.546 16.4971 281.561 16.4344L283.239 15.6182L281.569 16.4306C281.605 16.2511 281.504 16.0242 281.567 15.8602C281.131 15.8439 280.103 16.763 279.279 16.8497L282.358 15.3521L279.217 16.8796C279.15 16.8895 279.082 16.8939 279.014 16.8926L279.001 16.9844L276.261 18.3173L278.994 16.9882C278.967 17.2584 278.884 17.5199 278.748 17.755C268.831 22.3973 259.071 26.9534 250.015 31.2912L238.653 36.7217L232.233 39.8442C231.517 40.1924 230.924 40.4807 230.462 40.7054C230.323 40.7343 230.194 40.7973 230.085 40.8888C229.7 41.076 229.507 41.227 229.549 41.2351C229.656 41.2025 229.758 41.1532 229.849 41.0891C229.689 41.286 229.566 41.5104 229.486 41.7513L206.147 52.9309C193.399 59.0545 180.259 65.3881 166.81 71.8715C166.839 71.8294 166.862 71.7832 166.877 71.7344C166.867 71.677 166.845 71.6222 166.813 71.5731C166.782 71.5241 166.741 71.4817 166.693 71.4485C166.645 71.4152 166.591 71.3918 166.534 71.3795C166.477 71.3671 166.418 71.3661 166.36 71.3765C166.303 71.387 166.248 71.4086 166.199 71.4402C166.15 71.4718 166.108 71.5128 166.074 71.5608C166.041 71.6088 166.018 71.6628 166.005 71.7199C165.993 71.7769 165.992 71.8359 166.002 71.8933C166.24 71.8538 166.396 71.978 166.533 72.0063L136.469 86.5234C136.42 86.403 136.34 86.298 136.237 86.2196C136.133 86.1412 136.01 86.0922 135.882 86.0778C135.753 86.0634 135.622 86.0842 135.504 86.138C135.386 86.1918 135.284 86.2765 135.211 86.3832C135.31 86.6103 135.493 86.7905 135.722 86.8865L116.284 96.2828L58.9484 124.425L58.6639 123.84C58.1194 123.914 57.6854 123.687 57.0818 123.914C57.1515 124.195 56.996 124.403 57.2715 124.774C57.507 124.593 57.638 124.862 57.7664 125.028L45.1175 131.237C44.8474 131.073 44.5873 131.048 44.5565 131.415C44.6084 131.41 44.6607 131.417 44.7094 131.436L31.6448 137.847L4.35259 151.272C5.52447 153.682 6.69635 156.091 7.86823 158.501L7.79897 158.535C7.92854 158.938 7.46687 159.144 7.61142 159.578C7.98552 159.329 8.18997 159.534 8.42609 159.648C18.6421 180.438 28.9068 201.329 38.9617 221.807C39.0559 222.295 39.5689 222.645 38.4584 223.004C38.5928 223.266 38.7925 223.489 39.0382 223.651C39.2839 223.814 39.5673 223.91 39.861 223.931L39.9435 223.748C41.6907 227.34 43.4458 230.91 45.2088 234.457C45.0934 234.556 44.9963 234.674 44.9217 234.806C45.1035 235.103 45.3761 235.335 45.6993 235.465C48.5647 241.357 51.427 247.184 54.2862 252.945C54.3317 253.333 54.7145 253.689 54.7488 254.053C54.9597 253.819 55.0927 253.524 55.1294 253.211L71.1309 245.381C71.1413 245.423 71.1604 245.463 71.187 245.497C71.257 245.484 71.3214 245.451 71.3718 245.401C71.4223 245.351 71.4564 245.286 71.4696 245.217C95.8355 233.29 119.397 221.765 140.496 211.322C140.759 211.425 141.036 211.486 141.317 211.503C141.424 211.528 141.576 211.33 141.687 211.324C141.798 211.317 141.963 211.599 142.059 211.6C142.359 211.652 142.668 211.584 142.919 211.41C142.872 210.995 142.847 210.578 142.844 210.161C151.283 205.981 159.351 201.962 166.874 198.189C166.404 198.417 169.527 196.775 169.343 196.865C170.096 196.45 170.89 196.115 171.712 195.864L171.734 195.911C171.843 195.743 172.252 196.211 172.291 196.097C172.281 195.958 172.218 195.829 172.115 195.735C172.339 195.626 172.654 195.473 173.219 195.265C174.759 194.516 176.784 193.531 179.116 192.397C179.334 192.414 179.525 192.474 179.593 192.926C180.376 192.717 181.711 191.411 181.541 192.665C182.223 192.542 181.701 191.996 182.041 191.736C182.329 191.641 182.572 191.442 182.721 191.177L182.507 190.738C185.394 189.334 188.489 187.829 191.357 186.367C191.357 186.367 191.376 186.406 191.387 186.429C191.537 186.39 191.669 186.299 191.758 186.172L194.506 184.836C194.486 184.894 194.48 184.955 194.489 185.016C194.915 185.246 194.953 184.894 194.818 184.675L199.537 182.38C202.247 181.062 201.202 181.379 203.208 180.356C206.33 178.771 211.571 176.394 215.763 174.326L220.936 171.81C220.855 172.211 221.196 172.208 221.417 172.623C222.042 172.205 222.349 171.799 223.103 171.804C222.701 171.171 221.79 171.843 221.189 171.782C221.179 171.743 221.161 171.707 221.137 171.675L238.198 163.206L241.139 161.775L241.13 161.875C241.525 161.787 241.794 162.047 242.253 161.795C242.227 161.707 242.181 161.627 242.119 161.56C242.056 161.492 241.979 161.441 241.893 161.409L242.617 161.057C242.617 161.057 242.639 161.103 242.658 161.141C242.982 160.927 242.777 161.483 242.842 161.518C243.238 161.707 243.649 161.221 243.518 160.952C243.518 160.952 243.348 161.034 243.333 161.041C243.318 161.049 243.128 160.932 242.986 160.877L247.013 158.919L253.181 155.728C256.407 154.16 258.251 153.548 259.572 152.897C262.951 151.253 268.989 148.069 273.301 145.896L273.387 146.073L273.765 145.889L273.678 145.712L275.695 144.731C281.623 141.848 289.375 138.078 297.681 134.096C297.624 134.242 297.617 134.403 297.661 134.554C297.705 134.705 297.798 134.837 297.925 134.929C298.777 134.724 300.609 134.576 300.452 133.471C299.906 133.328 300.15 133.79 299.589 133.653C299.44 133.565 299.282 133.495 299.116 133.445C318.834 123.998 341.159 113.493 348.99 110.237C349.529 109.975 357.118 107.064 357.303 107.288C357.303 107.288 355.752 108.385 354.769 109.063L357.963 107.51L357.814 107.202C356.368 104.23 355.019 101.26 353.638 98.3233C354.362 99.6751 355.195 101.25 355.93 102.625C356.237 103.256 356.361 103.51 356.222 103.226C356.267 103.318 356.316 103.418 356.361 103.51C356.751 104.42 357.221 105.294 357.764 106.122C357.719 106.029 357.138 104.951 356.361 103.51C356.106 102.987 356.091 102.642 356.15 102.528C356.884 104.037 357.587 105.522 358.26 106.985L358.634 107.754L357.865 108.129C357.734 108.128 357.605 108.158 357.488 108.215C357.37 108.272 357.267 108.355 357.187 108.458L324.162 124.463L276.587 147.543L273.508 149.041C273.523 148.889 273.485 148.736 273.402 148.607C273.341 148.598 273.279 148.596 273.218 148.601C276.667 146.924 280.128 145.241 283.603 143.551C280.524 145.048 276.774 146.872 273.202 148.609C272.999 148.596 272.795 148.621 272.601 148.683C292.801 138.858 312.958 129.16 332.726 119.641C311.1 129.978 287.507 141.243 265.572 152.082L272.131 148.892C271.969 149.004 271.832 149.148 271.728 149.316L265.139 152.521C265.16 152.436 265.169 152.349 265.164 152.261C265.067 152.293 264.981 152.351 264.915 152.428C264.848 152.506 264.805 152.6 264.788 152.701L260.516 154.779C258.368 155.824 253.302 158.287 248.055 160.925C248.203 160.72 248.183 160.463 247.956 160.135C247.417 160.064 246.657 160.615 246.193 160.307C246.155 160.804 246.199 161.304 246.323 161.786C239.324 165.247 232.442 168.633 231.911 168.795C232.98 168.409 238.48 165.743 244.497 162.789L246.36 161.883C246.426 162.065 246.512 162.241 246.615 162.406C245.252 163.069 243.196 164.068 241.199 164.973L233.466 168.82C235.936 167.714 240.532 165.44 243.496 163.999L246.691 162.445C246.758 162.541 246.831 162.633 246.91 162.719C247.457 162.768 247.374 161.894 247.68 162.345C247.612 162.597 247.329 162.839 247.22 163.044C235.321 168.917 222.696 175.076 209.536 181.467C209.213 181.562 208.909 181.71 208.635 181.905L206.988 182.706C206.939 182.643 206.887 182.583 206.833 182.525L210.012 180.978C215.547 178.287 222.114 175.093 223.262 174.401C222.311 174.95 213.102 179.209 210.893 180.284L206.582 182.38C206.503 182.34 206.413 182.327 206.326 182.342C206.239 182.357 206.159 182.399 206.098 182.463L206.158 182.586L204.08 183.597C204.088 183.529 204.093 183.46 204.093 183.391C203.677 183.688 203.521 183.25 203.072 183.659C203.185 183.794 203.253 183.894 203.31 183.972L197.829 186.637C197.678 186.679 197.52 186.688 197.365 186.663C197.383 186.724 197.391 186.787 197.39 186.851L194.973 188.026C194.614 187.915 194.513 188.079 194.411 188.3L171.046 199.663C158.274 205.932 145.502 212.239 132.579 218.628C153.308 208.404 172.972 198.983 193.803 188.852L193.89 189.029L160.888 205.003C160.738 204.994 160.589 205.024 160.454 205.09C160.48 205.118 160.497 205.153 160.503 205.19C151.487 209.651 142.407 214.058 133.289 218.502ZM241.618 165.54C241.837 165.456 242.048 165.354 242.249 165.233L243.635 164.559L245.714 163.549C247.456 162.454 241.532 165.363 241.618 165.54ZM303.489 134.098C303.221 134.197 302.963 134.322 302.719 134.473C301.206 135.275 299.615 136.134 298.856 136.57C301.136 135.385 303.238 134.268 303.489 134.098ZM309.648 131.103C308.598 131.557 307.586 132.094 306.621 132.708C307.663 132.252 308.67 131.718 309.632 131.11L309.648 131.103ZM314.759 128.617C313.709 129.07 312.697 129.607 311.732 130.222C312.775 129.766 313.782 129.232 314.744 128.624L314.759 128.617ZM318.855 126.625C317.805 127.079 316.793 127.616 315.828 128.23C316.87 127.774 317.877 127.24 318.839 126.633L318.855 126.625ZM342.956 114.78C336.451 117.944 329.644 121.368 328.062 122.147C301.14 135.297 356.856 108.286 355.684 108.714C355.453 108.826 354.961 109.008 354.322 109.3L353.909 109.567C352.846 110.122 347.955 112.434 342.94 114.787L342.956 114.78ZM191.386 187.952C191.298 187.829 191.236 187.69 191.203 187.542C191.171 187.394 191.168 187.241 191.196 187.093L190.427 187.467C190.631 188.005 190.908 188.261 191.371 187.96L191.386 187.952ZM180.704 194.623L183.868 193.084C186.001 191.99 188.25 190.782 188.485 190.62L189.834 190.145L196.763 186.775C200.058 185.172 203.322 183.585 206.552 181.947C206.01 182.144 206.816 181.648 210.637 179.875L210.113 180.187L212.815 178.873L210.659 179.921C213.673 178.151 216.9 176.801 215.224 177.701L220.302 175.165C222.254 174.149 225.073 172.702 228.545 171.013C228.574 171.289 228.653 171.557 228.777 171.805C226.183 173.066 226.876 172.729 228.8 171.851C228.822 171.916 228.852 171.978 228.89 172.036C229.052 172.044 229.213 171.992 229.338 171.888C229.464 171.785 229.547 171.638 229.57 171.476C233.111 169.754 239.162 166.811 238.562 167.027C237.962 167.242 234.436 169.034 232.403 170.022L229.563 171.404C229.636 171.116 229.628 170.813 229.538 170.53L229.961 170.324L233.626 168.485L229.515 170.484C229.502 170.446 229.485 170.41 229.463 170.376C229.134 170.679 228.96 170.536 228.734 170.541C229.85 169.998 230.704 169.582 230.894 169.443L228.684 170.517C228.591 170.537 228.504 170.58 228.43 170.641C228.464 170.734 228.488 170.831 228.504 170.929L220.751 174.699L198.981 185.287L186.858 191.306C189.763 189.979 180.256 194.584 179.985 194.906C179.861 194.966 180.157 194.87 180.688 194.631L180.704 194.623ZM164.573 200.308C164.425 200.161 164.549 200.748 164.662 200.492C164.898 199.997 164.127 199.705 164.103 199.812C164.079 199.919 164.5 200.276 164.557 200.315L164.573 200.308ZM161.172 203.865C164.881 202.176 171.855 198.898 176.1 196.843L178.587 195.634L179.01 195.428C179.272 195.3 177.261 196.117 176.797 196.2C171.639 198.708 166.518 201.275 161.437 203.765L161.172 203.865ZM143.731 212.434C147.671 210.631 151.195 209.031 153.418 207.846C154.028 207.536 154.619 207.188 155.186 206.805L143.731 212.434ZM356.095 101.536C355.936 101.09 356.344 102.243 356.095 101.536V101.536ZM341.329 70.8596C341.066 70.2737 340.746 69.7149 340.375 69.1914C340.579 69.7679 341.951 72.4324 342.395 73.092C342.066 72.4145 341.751 71.7678 341.456 71.1597C341.426 71.079 341.381 70.9866 341.325 70.8902L341.329 70.8596ZM332.353 56.691L332.653 56.545L332.38 55.983L332.08 56.129L324.281 40.0934C326.91 45.7542 329.454 51.1804 331.903 56.2151L331.633 56.3462C331.776 56.6387 331.927 56.7552 332.154 56.7309C332.502 57.4468 332.846 58.1551 333.187 58.8556C337.734 68.0674 342.856 78.2273 337.314 66.9104L332.353 56.691ZM343.222 77.6111C343.249 77.665 343.245 77.6573 343.222 77.6111V77.6111ZM339.861 69.9745C340.25 70.8616 340.697 71.722 341.199 72.5504C340.807 71.6737 340.359 70.8234 339.856 70.005L339.861 69.9745ZM338.196 66.0242C337.329 66.1985 337.966 67.5071 338.547 67.234C338.578 66.8136 338.453 66.3965 338.196 66.0625L338.196 66.0242ZM336.341 64.1661C336.768 64.3201 337.281 63.9659 336.931 63.4222C336.473 63.6163 336.245 63.8511 336.356 64.1969L336.341 64.1661ZM332.292 51.4567C331.732 50.1679 328.257 42.7291 328.654 43.8208C328.684 43.8823 328.778 44.0748 328.905 44.3365C329.643 45.8531 330.964 48.628 332.307 51.4874L332.292 51.4567ZM311.521 9.31691C311.283 9.09988 311.269 8.24976 310.876 8.47899C310.753 8.87198 311.048 9.55671 311.536 9.34769L311.521 9.31691ZM307.386 3.06535L307.54 2.99049L307.35 2.93092L307.386 3.06535ZM306.987 2.8121L307.221 2.78405L306.987 2.8121ZM307.073 2.9892L307.212 2.92178L307.073 2.9892ZM307.089 3.27652L307.151 3.24653L307.128 3.20034L307.036 3.24527L307.089 3.27652ZM308.221 5.81964C308.057 5.48092 307.918 5.19605 307.809 4.9728C307.937 5.23455 308.068 5.52314 308.229 5.85417L308.221 5.81964ZM306.869 4.8782L306.984 4.82208C306.915 4.87491 306.869 4.89738 306.876 4.91278L306.869 4.8782ZM306.051 4.07676L306.009 3.99205L306.051 4.07676ZM306.35 4.69262L306.604 4.56904L306.618 4.36243L306.592 4.30853L306.245 4.47704L306.35 4.69262ZM213.768 46.7396L213.938 46.6573L216.214 45.4648C216.383 45.3824 216.445 45.3525 216.287 45.3814C215.415 45.7802 214.576 46.2458 213.776 46.7742L213.768 46.7396ZM200.977 55.1216L214.275 48.7207C219.664 46.0999 235.363 38.6458 223.513 44.2279L219.426 46.1586L200.977 55.1216ZM181.032 63.2794L185.151 61.2764C184.027 61.8422 182.241 62.7108 181.04 63.314L181.032 63.2794ZM177.867 66.028C176.763 65.7173 177.678 66.8338 177.867 66.028V66.028ZM68.4841 118.274C63.5187 120.689 59.8379 122.574 59.321 122.92L68.4841 118.274ZM128.231 90.2729C127.661 90.55 126.437 91.1453 125.344 91.6769L128.231 90.2729ZM154.821 77.2454L153.028 78.1177C151.142 79.035 148.546 80.4307 148.546 80.4307C148.908 80.2548 149.338 80.1025 149.754 79.9195L151.902 78.8749L152.671 78.5005L154.235 77.6256L154.821 77.2454ZM160.347 73.3205L165.051 71.0329C170.644 68.2841 160.283 73.2662 160.358 73.3627L160.347 73.3205ZM123.603 91.1907C124.3 90.8896 124.965 90.5185 125.587 90.0831C124.892 90.3983 124.231 90.7836 123.614 91.233L123.603 91.1907ZM119.508 93.1826C120.552 92.7169 121.563 92.1805 122.535 91.5772L120.028 92.8437C119.623 93.1264 119.33 93.307 119.522 93.2325L119.508 93.1826ZM97.3567 103.87L99.8741 102.646C99.1933 102.929 98.5393 103.209 97.9505 103.486C97.0727 103.932 97.1836 103.945 97.3715 103.92L97.3567 103.87ZM79.3661 112.934L79.6972 112.773C79.1207 112.977 74.1034 115.579 68.9096 118.229L87.8243 109.029C81.9729 111.932 75.6441 115.086 76.1091 114.927C89.3399 108.492 102.59 102.07 115.859 95.6617C124.827 91.2999 133.112 87.1565 138.429 84.4659C142.76 82.2738 138.328 84.2581 140.926 82.9849C143.074 81.9403 145.725 80.7175 148.388 79.4986C148.924 79.1714 150.891 78.1287 151.33 77.9727C150.891 78.3129 150.409 78.5922 149.896 78.8031C153.228 77.2776 156.396 75.7848 158.403 74.6659C156.939 75.4538 150.617 78.3478 151.916 77.5542C150.546 78.1632 150.048 78.196 151.176 77.6571C146.665 79.8511 139.814 83.4589 135.904 85.2652C128.997 88.4628 141.625 82.4068 142.003 82.1468L134.713 85.6924C131.218 87.3922 128.16 88.9934 129.848 88.3726C129.586 88.4998 136.443 85.3936 139.099 84.0637C136.542 85.4215 129.936 88.7104 127.912 89.5994C127.266 89.9139 126.828 89.6985 127.751 89.2684C119.736 92.986 111.563 97.3795 104.255 100.772L103.878 100.955L98.2501 103.75C96.1285 104.848 87.7991 108.88 79.3809 112.984L79.3661 112.934ZM66.2481 118.98C66.6253 118.797 69.7354 117.284 70.3359 116.992C73.5307 115.439 74.6975 114.823 74.7208 114.793L66.2481 118.98ZM57.8867 123.142C58.7215 122.784 59.5957 122.311 60.3578 121.94L57.8867 123.142ZM57.2554 123.449C57.3324 123.412 59.2877 122.461 64.2685 120.038C72.2902 116.137 83.191 110.835 94.2433 105.336C93.4734 105.711 92.6662 106.008 91.7888 106.416C89.1951 107.62 84.7602 109.834 83.6055 110.396L89.8128 107.501L67.3369 118.498C63.8861 120.348 60.5721 121.95 57.2968 123.515L57.2554 123.449ZM43.5629 129.509C43.1131 129.68 44.2701 129.26 43.5629 129.509V129.509ZM21.792 140.801L31.1146 136.267C42.716 130.625 54.5021 124.893 55.4771 124.314C56.0206 123.983 51.3557 126.233 46.2017 128.73L21.792 140.801ZM14.8258 177.23C14.3054 176.16 13.7812 175.082 13.2608 174.012C13.7625 175.044 14.1506 175.959 14.3667 176.502C13.5863 175.054 14.2882 176.673 14.3667 176.502C14.7935 177.379 15.293 178.269 15.7654 179.182C15.4921 178.62 15.1776 177.973 14.8518 177.303L14.8258 177.23ZM4.0893 154.684C3.94703 154.392 3.83096 154.153 3.7149 153.915C4.4637 155.454 5.10393 156.771 5.72169 158.041C6.21216 159.049 6.72625 160.341 7.18134 161.434C7.55575 162.204 8.23141 163.436 8.7406 164.483C8.77347 164.512 8.81064 164.536 8.85083 164.553C7.00523 160.739 5.35144 157.241 4.11528 154.757L4.0893 154.684ZM48.4584 246.384L47.8107 245.052C47.7208 244.868 47.5921 244.74 47.5769 244.728C47.8449 245.312 48.1442 245.882 48.4732 246.434L48.4584 246.384ZM43.118 233.446C42.5976 233.414 42.4008 233.205 42.2583 233.636C42.2315 233.711 42.2199 233.791 42.2243 233.87C42.2287 233.95 42.2489 234.028 42.2837 234.099C42.3186 234.171 42.3674 234.235 42.4274 234.288C42.4873 234.34 42.5571 234.38 42.6327 234.406C43.1709 234.201 43.1329 233.829 43.1867 233.47L43.118 233.446ZM59.2663 253.731C60.1374 253.347 60.9781 252.896 61.7811 252.384C60.9275 252.782 60.1047 253.243 59.3195 253.763L59.2663 253.731ZM62.5555 252.293L57.3976 254.802C59.441 253.856 61.2268 253.006 62.4246 252.357L62.5555 252.293ZM78.5996 244.414L67.8407 249.694L68.6105 249.32C71.9339 247.913 75.5069 246.08 78.6528 244.445L78.5996 244.414ZM84.215 241.379L86.9795 239.958C85.5694 240.524 84.1944 241.174 82.8616 241.904L81.2861 242.775C80.8858 242.969 80.6696 243.131 80.6887 243.132C80.8735 243.042 81.4586 242.757 82.1591 242.417C82.826 242.01 83.5327 241.673 84.2682 241.41L84.215 241.379ZM101.665 233.082L86.1674 240.696C89.3555 239.402 96.1164 235.962 101.718 233.114L101.665 233.082ZM137.165 214.865C137.537 214.732 137.479 214.455 137.845 214.306C137.646 213.898 137.402 213.788 137.009 214.018C137.25 214.376 137.038 214.584 137.21 214.881L137.165 214.865ZM130.809 218.414C131.108 218.715 132.088 217.953 131.281 217.955C131.665 218.53 130.54 217.744 130.854 218.429L130.809 218.414ZM133.989 217.438L132.094 218.16L132.04 218.186L122.994 222.585C122.867 222.695 123.032 222.662 123.751 222.379C124.339 222.217 133.788 217.631 134.035 217.454L133.989 217.438ZM323.918 34.8443L324.606 36.2608C324.342 35.6185 324.117 35.1566 323.963 34.8601L323.918 34.8443ZM323.334 31.863C323.007 30.6228 317.19 18.5639 319.813 24.7606C321.335 28.0278 321.777 28.2892 323.38 31.8789L323.334 31.863ZM329.291 122.187C320.053 126.68 333.746 120.192 332.37 120.69C332.131 120.806 329.756 121.99 329.336 122.203L329.291 122.187ZM326.801 42.1426C326.814 42.3457 327.064 42.1762 327.199 42.1393L327.113 41.9623C327.011 42.0079 326.92 42.0748 326.846 42.1585L326.801 42.1426ZM358.236 108.11L358.42 108.077C358.492 108.053 358.552 108.003 358.59 107.938L358.236 108.11Z" fill="#11B868"/>
</svg>
