<svg width="24" height="24" viewBox="0 0 24 24" fill="none" xmlns="http://www.w3.org/2000/svg">
<g clip-path="url(#clip0_1_32)">
<path d="M12 24C18.6274 24 24 18.6274 24 12C24 5.37258 18.6274 0 12 0C5.37258 0 0 5.37258 0 12C0 18.6274 5.37258 24 12 24Z" fill="url(#paint0_linear_1_32)"/>
<path d="M4.46251 12.585C5.86501 11.835 7.46249 11.1675 8.89499 10.515C11.415 9.4575 13.9425 8.41502 16.4925 7.44002C16.9875 7.27502 17.88 7.11751 17.9925 7.85251C17.94 8.89501 17.745 9.93 17.61 10.965C17.265 13.215 16.86 15.51 16.485 17.7825C16.4506 17.96 16.3717 18.1259 16.256 18.2647C16.1402 18.4036 15.9912 18.5109 15.8228 18.5768C15.6545 18.6426 15.4722 18.6649 15.2929 18.6414C15.1137 18.6179 14.9433 18.5495 14.7975 18.4425C13.3425 17.46 11.8725 16.485 10.4325 15.48C9.96003 15 10.4325 14.31 10.8225 13.98C12.0225 12.795 13.29 11.79 14.43 10.5525C14.7375 9.80251 13.83 10.4325 13.53 10.62C11.8875 11.7525 10.29 12.96 8.55753 13.95C7.67253 14.4375 6.63749 14.025 5.75249 13.7475C4.86749 13.47 3.80253 13.095 4.48503 12.5925L4.46251 12.585Z" fill="white"/>
</g>
<defs>
<linearGradient id="paint0_linear_1_32" x1="15.5175" y1="3.7875" x2="9.5175" y2="17.79" gradientUnits="userSpaceOnUse">
<stop stop-color="#38AEE1"/>
<stop offset="1" stop-color="#2296C8"/>
</linearGradient>
<clipPath id="clip0_1_32">
<rect width="24" height="24" fill="white"/>
</clipPath>
</defs>
</svg>
